<svg width="46" height="80" viewBox="0 0 46 80" fill="none" xmlns="http://www.w3.org/2000/svg">
<path id="Arrow 2" d="M23 38.5L26 38.5L23 38.5ZM20.8787 79.1213C22.0503 80.2929 23.9498 80.2929 25.1213 79.1213L44.2132 60.0294C45.3848 58.8579 45.3848 56.9584 44.2132 55.7868C43.0416 54.6152 41.1421 54.6152 39.9706 55.7868L23 72.7574L6.02944 55.7868C4.85787 54.6152 2.95837 54.6152 1.7868 55.7868C0.615225 56.9584 0.615226 58.8579 1.7868 60.0294L20.8787 79.1213ZM20 3.93403e-07L20 38.5L26 38.5L26 -3.93402e-07L20 3.93403e-07ZM20 38.5L20 77L26 77L26 38.5L20 38.5Z" fill="white"/>
</svg>
