<svg width="28" height="28" viewBox="0 0 28 28" fill="none" xmlns="http://www.w3.org/2000/svg">
<rect width="28" height="28" fill="#1E1E1E"/>
<g id="iPhone 13 / 13 Pro - 2" clip-path="url(#clip0_0_1)">
<rect width="390" height="844" transform="translate(-334 -46)" fill="#F9F3DC"/>
<g id="head">
<g id="Rectangle 15" filter="url(#filter0_d_0_1)">
<rect x="-339" y="-46" width="401" height="87" fill="white"/>
</g>
<g id="Question_light">
<circle id="Ellipse 65" cx="14" cy="14" r="10.5" stroke="#666666" stroke-width="1.5"/>
<path id="Ellipse 93" d="M15.1667 20.4167C15.1667 21.061 14.6443 21.5833 14 21.5833C13.3557 21.5833 12.8333 21.061 12.8333 20.4167C12.8333 19.7723 13.3557 19.25 14 19.25C14.6443 19.25 15.1667 19.7723 15.1667 20.4167Z" fill="#666666"/>
<path id="Vector 123" d="M14 18.0833V16.4074C14 15.647 14.4296 14.9519 15.1098 14.6118L15.5071 14.4131C16.7285 13.8024 17.5 12.5541 17.5 11.1885V11.0833C17.5 9.15035 15.933 7.58334 14 7.58334V7.58334V7.58334C12.067 7.58334 10.5 9.15035 10.5 11.0833V11.0833" stroke="#666666" stroke-width="1.5"/>
</g>
</g>
</g>
<defs>
<filter id="filter0_d_0_1" x="-343" y="-46" width="409" height="95" filterUnits="userSpaceOnUse" color-interpolation-filters="sRGB">
<feFlood flood-opacity="0" result="BackgroundImageFix"/>
<feColorMatrix in="SourceAlpha" type="matrix" values="0 0 0 0 0 0 0 0 0 0 0 0 0 0 0 0 0 0 127 0" result="hardAlpha"/>
<feOffset dy="4"/>
<feGaussianBlur stdDeviation="2"/>
<feComposite in2="hardAlpha" operator="out"/>
<feColorMatrix type="matrix" values="0 0 0 0 0 0 0 0 0 0 0 0 0 0 0 0 0 0 0.15 0"/>
<feBlend mode="normal" in2="BackgroundImageFix" result="effect1_dropShadow_0_1"/>
<feBlend mode="normal" in="SourceGraphic" in2="effect1_dropShadow_0_1" result="shape"/>
</filter>
<clipPath id="clip0_0_1">
<rect width="390" height="844" fill="white" transform="translate(-334 -46)"/>
</clipPath>
</defs>
</svg>
