<svg width="39" height="38" viewBox="0 0 39 38" fill="none" xmlns="http://www.w3.org/2000/svg">
<path id="Arrow 1" d="M3 16.4726C1.61929 16.4726 0.5 17.5919 0.5 18.9726C0.5 20.3533 1.61929 21.4726 3 21.4726L3 16.4726ZM37.7678 20.7404C38.7441 19.7641 38.7441 18.1811 37.7678 17.2048L21.8579 1.29493C20.8816 0.318615 19.2986 0.318615 18.3223 1.29493C17.346 2.27124 17.346 3.85415 18.3223 4.83046L32.4645 18.9726L18.3223 33.1147C17.346 34.091 17.346 35.674 18.3223 36.6503C19.2986 37.6266 20.8816 37.6266 21.8579 36.6503L37.7678 20.7404ZM3 21.4726L36 21.4726V16.4726L3 16.4726L3 21.4726Z" fill="white"/>
</svg>
